<svg width="36" height="36" viewBox="0 0 36 36" fill="none" xmlns="http://www.w3.org/2000/svg">
<path fill-rule="evenodd" clip-rule="evenodd" d="M14.2598 7.09437C14.1633 6.52223 14.0907 5.95658 14.0438 5.39086C13.9731 4.54229 14.0168 3.68723 13.9917 2.83866C13.9808 2.47866 13.9377 1.5401 13.9551 1.4051C14.1126 0.228671 15.062 0.0486495 15.3398 0.0165067C15.4741 -0.00277906 16.8537 -0.156996 17.1513 1.373C17.5165 3.24372 17.6335 5.12726 17.5043 6.97226C17.8058 8.54084 18.3214 10.1029 19.0021 11.5172C21.7111 17.1422 26.8733 17.6887 32.4661 17.6372C33.3263 17.6244 34.0405 18.2994 34.0855 19.1544C34.1305 20.0158 33.4902 20.7615 32.6339 20.8387C29.5077 21.1408 23.9611 23.648 22.0435 26.258C21.6423 26.8044 21.409 28.1223 21.1004 29.4144C20.6697 31.208 20.1573 32.9823 19.5833 33.728C19.4971 33.8437 18.4499 35.0266 18.1375 35.2001C17.3866 35.6116 16.7856 35.3737 16.4442 35.1551C16.1028 34.9365 15.7165 34.5058 15.5622 33.7922C15.4008 33.0465 15.5371 31.5165 15.5121 31.1886C15.4208 29.9994 15.1829 27.6658 14.6976 25.6601C14.4359 24.5801 14.1569 23.5837 13.6953 23.0887C11.9866 21.2565 9.25449 21.5265 6.9537 21.8287C6.68949 21.8608 6.42528 21.8994 6.16171 21.9316C5.22506 22.208 4.23054 22.4137 3.17947 22.5358C1.59225 22.7222 1.33127 21.263 1.31713 21.1665C1.28756 20.9544 1.17762 19.8615 2.37397 19.4244C2.50447 19.3794 3.46748 19.1672 3.83841 19.0837C4.35527 18.968 4.8779 18.878 5.40247 18.7944C10.8211 17.1101 13.7641 12.3787 14.2598 7.09437ZM16.1196 12.938C18.1651 17.168 21.2695 19.2123 24.9492 20.138H24.9486C22.651 21.3401 20.561 22.8444 19.4534 24.3551C19.033 24.9273 18.6473 26.078 18.2995 27.3701C18.1111 26.168 17.8566 24.8886 17.5204 23.7958C17.1379 22.5486 16.6229 21.5137 16.0482 20.8966C14.9386 19.7073 13.5462 19.0451 12.049 18.7173C13.8413 17.1294 15.2003 15.1494 16.1196 12.938Z" fill="#F1553F"/>
</svg>
