<svg width="42" height="42" viewBox="0 0 42 42" fill="none" xmlns="http://www.w3.org/2000/svg">
<path fill-rule="evenodd" clip-rule="evenodd" d="M18.6939 15.7796C14.7952 12.5748 11.6361 8.7583 9.26217 4.31178C8.78739 3.42612 7.68264 3.08829 6.78786 3.56307C5.90221 4.03786 5.56432 5.14266 6.0391 6.03744C8.65041 10.904 12.1018 15.0857 16.3748 18.6009C17.1509 19.2401 18.3104 19.1305 18.9496 18.3544C19.5887 17.5692 19.47 16.4187 18.6939 15.7796Z" fill="#F1553F"/>
<path fill-rule="evenodd" clip-rule="evenodd" d="M16.6149 3.29833C16.8158 6.98703 16.9984 10.6757 17.2267 14.3644C17.2906 15.3688 18.158 16.1357 19.1623 16.0718C20.1667 16.0079 20.9336 15.1405 20.8697 14.1362C20.6415 10.4566 20.4588 6.77705 20.258 3.08835C20.2032 2.08674 19.3358 1.31521 18.3314 1.37182C17.3271 1.42843 16.551 2.29124 16.6149 3.29833Z" fill="#F1553F"/>
<path fill-rule="evenodd" clip-rule="evenodd" d="M30.17 4.04709C27.8326 7.57143 25.1849 10.8218 22.5188 14.1088C21.8797 14.894 21.9983 16.0445 22.7835 16.6745C23.5687 17.3136 24.7192 17.1949 25.3492 16.4097C28.0883 13.0405 30.8092 9.68966 33.2196 6.06488C33.7766 5.22488 33.5391 4.09274 32.6991 3.53578C31.8683 2.97883 30.7269 3.20709 30.17 4.04709Z" fill="#F1553F"/>
<path fill-rule="evenodd" clip-rule="evenodd" d="M39.2243 17.1492C32.8877 17.4323 26.1586 17.4414 19.8221 17.0397C18.8177 16.9849 17.9504 17.7427 17.8864 18.7562C17.8225 19.7605 18.5895 20.6279 19.5938 20.6918C26.0582 21.0936 32.9243 21.0844 39.3887 20.8014C40.393 20.7557 41.1781 19.8975 41.1325 18.8932C41.0868 17.8888 40.2286 17.1036 39.2243 17.1492Z" fill="#F1553F"/>
<path fill-rule="evenodd" clip-rule="evenodd" d="M16.37 18.3087C20.2779 23.093 24.3227 27.7861 27.9475 32.7896C28.541 33.6022 29.6823 33.7847 30.504 33.1913C31.3167 32.5978 31.4992 31.4564 30.9057 30.6438C27.2353 25.5856 23.1449 20.8378 19.1914 15.9986C18.5523 15.2226 17.4018 15.1039 16.6257 15.743C15.8405 16.3821 15.7309 17.5326 16.37 18.3087Z" fill="#F1553F"/>
<path fill-rule="evenodd" clip-rule="evenodd" d="M17.5535 19.6969C18.5761 24.6821 18.8591 29.4482 18.9322 34.4974C18.9413 35.5017 19.7722 36.3052 20.7765 36.296C21.79 36.2778 22.5935 35.456 22.5752 34.4425C22.5022 29.156 22.2009 24.18 21.1326 18.9574C20.9226 17.9713 19.964 17.3321 18.9687 17.5421C17.9826 17.743 17.3435 18.7108 17.5535 19.6969Z" fill="#F1553F"/>
<path fill-rule="evenodd" clip-rule="evenodd" d="M17.7183 19.2954C14.76 25.2119 13.2352 31.7858 10.067 37.5745C9.58307 38.451 9.9117 39.5649 10.7974 40.0488C11.683 40.5327 12.7879 40.204 13.2718 39.3275C16.4583 33.5023 18.0013 26.8919 20.9869 20.9297C21.4343 20.0258 21.0691 18.9301 20.1743 18.4736C19.2704 18.0262 18.1748 18.3914 17.7183 19.2954Z" fill="#F1553F"/>
<path fill-rule="evenodd" clip-rule="evenodd" d="M19.3463 17.9527C13.4572 18.9936 7.5772 19.4683 1.65155 20.1714C0.647201 20.2901 -0.0649728 21.194 0.0537229 22.1984C0.172418 23.2027 1.07642 23.9149 2.08076 23.7962C8.07033 23.0931 14.0234 22.6001 19.9855 21.5501C20.9716 21.3675 21.6381 20.4179 21.4647 19.4318C21.282 18.4366 20.3416 17.7701 19.3463 17.9527Z" fill="#F1553F"/>
<path fill-rule="evenodd" clip-rule="evenodd" d="M23.4442 15.1775C22.2298 15.1228 21.0794 15.0406 19.8924 14.8671C18.8881 14.721 17.9659 15.4149 17.8198 16.4101C17.6737 17.4053 18.3676 18.3367 19.3628 18.4828C20.6776 18.6745 21.9467 18.7658 23.2798 18.8206C24.2841 18.8662 25.1424 18.0901 25.1789 17.0766C25.2245 16.0723 24.4485 15.2232 23.4442 15.1775Z" fill="#F1553F"/>
</svg>
