<svg width="27" height="27" viewBox="0 0 27 27" fill="none" xmlns="http://www.w3.org/2000/svg">
<path fill-rule="evenodd" clip-rule="evenodd" d="M6.57386 17.5423C8.47092 19.2145 9.78601 21.1798 11.2651 23.1846C11.554 23.5762 11.4696 24.1268 11.0783 24.416C10.6869 24.7054 10.1344 24.6216 9.84536 24.2302C8.44284 22.3291 7.20761 20.451 5.40603 18.8624C5.04155 18.5412 5.00717 17.9838 5.33028 17.6206C5.65148 17.2551 6.20962 17.2209 6.57386 17.5423Z" fill="#0E84DA"/>
<path fill-rule="evenodd" clip-rule="evenodd" d="M8.08943 10.7001C13.5995 11.4348 19.5257 13.1858 24.5211 15.6396C24.9572 15.8542 25.1365 16.3824 24.9205 16.8175C24.7045 17.2526 24.1763 17.4336 23.7403 17.219C18.9101 14.8467 13.1786 13.1531 7.85187 12.4446C7.36979 12.3796 7.03197 11.9365 7.09792 11.4557C7.16387 10.9749 7.60735 10.6352 8.08943 10.7001Z" fill="#0E84DA"/>
<path fill-rule="evenodd" clip-rule="evenodd" d="M6.61331 6.74629C9.3485 4.09644 13.1321 2.75534 16.7897 2.03304C17.2678 1.94024 17.7305 2.25042 17.8226 2.72497C17.9161 3.20209 17.6037 3.66484 17.1272 3.76005C13.7955 4.41681 10.3293 5.59476 7.83781 8.00775C7.48839 8.34643 6.93 8.33801 6.59284 7.99067C6.25544 7.6435 6.26412 7.0848 6.61331 6.74629Z" fill="#0E84DA"/>
</svg>
