<svg width="29" height="29" viewBox="0 0 29 29" fill="none" xmlns="http://www.w3.org/2000/svg">
<path fill-rule="evenodd" clip-rule="evenodd" d="M17.8292 23.727C16.0603 24.5108 14.3903 25.5509 12.7795 26.5709C12.4335 26.7917 12.3238 27.2519 12.5571 27.5788C12.7682 27.9245 13.2262 28.0209 13.5499 27.8186C15.1101 26.8288 16.7255 25.8145 18.4147 25.0714C18.7759 24.9145 18.9453 24.4804 18.7867 24.1068C18.6283 23.7334 18.1906 23.5704 17.8292 23.727Z" fill="#F1553F"/>
<path fill-rule="evenodd" clip-rule="evenodd" d="M17.4151 14.3857C13.144 13.9295 8.83463 14.0197 4.55564 13.4629C4.1657 13.4028 3.79728 13.6878 3.74919 14.0856C3.70128 14.4836 3.975 14.8591 4.38733 14.9005C8.67212 15.4644 12.9871 15.381 17.264 15.8441C17.6718 15.8802 18.0327 15.5863 18.0757 15.1824C18.0966 14.7974 17.8229 14.4218 17.4151 14.3857Z" fill="#F1553F"/>
<path fill-rule="evenodd" clip-rule="evenodd" d="M14.1821 1.68955C15.3735 2.9897 16.5649 4.28997 17.7566 5.59035C18.0141 5.90092 18.4818 5.91777 18.7828 5.64268C19.0837 5.36737 19.0883 4.91741 18.8306 4.60661C17.6372 3.3042 16.4442 2.0019 15.251 0.699716C14.9711 0.407716 14.5047 0.392375 14.2052 0.669266C13.9281 0.927586 13.9023 1.39777 14.1821 1.68955Z" fill="#F1553F"/>
</svg>
