<svg width="28" height="28" viewBox="0 0 28 28" fill="none" xmlns="http://www.w3.org/2000/svg">
<path d="M18.9762 11.8934L9.23215 12.2336C9.12049 12.2375 9.03233 12.3321 9.03623 12.4437L9.39245 22.6445C9.39635 22.7562 9.49089 22.8443 9.60254 22.8404L19.3466 22.5002C19.4583 22.4963 19.5464 22.4017 19.5425 22.2901L19.1863 12.0893C19.1824 11.9776 19.0879 11.8895 18.9762 11.8934ZM10.7099 13.808L17.6119 13.567L17.7156 16.5359L10.8135 16.7769L10.7099 13.808ZM17.8689 20.9258L10.9668 21.1668L10.8632 18.1979L17.7652 17.9569L17.8689 20.9258Z" fill="#001857"/>
<path d="M12.1388 19.8047C12.1463 20.0201 12.2391 20.2236 12.3967 20.3706C12.5543 20.5176 12.7638 20.5959 12.9791 20.5884C13.1945 20.5809 13.3981 20.4881 13.545 20.3305C13.692 20.1729 13.7703 19.9634 13.7628 19.748C13.7553 19.5327 13.6625 19.3291 13.5049 19.1822C13.3473 19.0352 13.1378 18.9569 12.9224 18.9644C12.7071 18.9719 12.5035 19.0647 12.3566 19.2223C12.2096 19.3799 12.1313 19.5894 12.1388 19.8047ZM11.9811 15.288C11.9886 15.5033 12.0813 15.7069 12.2389 15.8538C12.3965 16.0008 12.6061 16.0791 12.8214 16.0716C13.0368 16.0641 13.2403 15.9713 13.3873 15.8137C13.5342 15.6561 13.6126 15.4466 13.6051 15.2312C13.5975 15.0159 13.5048 14.8123 13.3472 14.6654C13.1896 14.5184 12.9801 14.4401 12.7647 14.4476C12.5493 14.4551 12.3458 14.5479 12.1988 14.7055C12.0519 14.8631 11.9735 15.0726 11.9811 15.288Z" fill="#001857"/>
<path d="M21.6332 9.84174C20.3639 6.81447 17.3264 4.73561 13.8576 4.85674C10.3888 4.97788 7.50365 7.26101 6.4486 10.3695C4.28391 11.0218 2.74486 13.075 2.84032 15.4446C2.94805 18.0932 5.07867 20.1758 7.675 20.3163C7.79462 20.3223 7.89284 20.2249 7.88868 20.1056L7.83515 18.5729C7.83161 18.4714 7.75247 18.3878 7.65053 18.3787C6.96239 18.3163 6.30486 18.0395 5.79041 17.5671C5.16058 16.9921 4.79763 16.2019 4.76794 15.3518C4.74313 14.6413 4.95065 13.9634 5.36507 13.39C5.76987 12.8321 6.35245 12.418 7.00365 12.2225L7.9565 11.9352L8.2767 10.9916C8.47472 10.4054 8.76026 9.85174 9.12632 9.34862C9.4874 8.84822 9.92165 8.40623 10.4117 8.03343C11.429 7.26367 12.6436 6.83254 13.925 6.78779C15.2065 6.74305 16.4482 7.0884 17.5168 7.78786C18.0342 8.12547 18.4957 8.53618 18.8908 9.01018C19.291 9.48654 19.6145 10.0189 19.8529 10.5899L20.2355 11.5064L21.2036 11.7266C22.5917 12.044 23.5971 13.2614 23.647 14.69C23.6767 15.5426 23.3697 16.3537 22.7815 16.9712C22.3037 17.4757 21.6697 17.8002 20.9876 17.9104C20.8866 17.9266 20.816 18.0155 20.8195 18.117L20.8731 19.6522C20.8773 19.7714 20.9846 19.8617 21.1035 19.8474C23.676 19.5238 25.6512 17.3004 25.5766 14.6557C25.5091 12.2851 23.8331 10.3442 21.6332 9.84174Z" fill="#001857"/>
</svg>
