<svg width="65" height="69" viewBox="0 0 65 69" fill="none" xmlns="http://www.w3.org/2000/svg">
<path fill-rule="evenodd" clip-rule="evenodd" d="M25.7274 13.7947C25.5399 12.6822 25.3986 11.5823 25.3074 10.4823C25.1699 8.83229 25.2549 7.16968 25.2061 5.51968C25.1849 4.81968 25.1011 2.9947 25.1349 2.7322C25.4411 0.4447 27.2873 0.0946573 27.8273 0.0321573C28.0886 -0.00534268 30.7711 -0.305209 31.3498 2.66979C32.0598 6.30729 32.2873 9.96974 32.0361 13.5572C32.6223 16.6072 33.6249 19.6447 34.9486 22.3947C40.2161 33.3322 50.2536 34.3947 61.1286 34.2947C62.8011 34.2697 64.1899 35.5822 64.2774 37.2447C64.3649 38.9197 63.1199 40.3697 61.4549 40.5197C55.3761 41.1072 44.5911 45.9822 40.8623 51.0572C40.0823 52.1197 39.6286 54.6823 39.0286 57.1948C38.1911 60.6823 37.1949 64.1322 36.0786 65.5822C35.9111 65.8072 33.8748 68.1073 33.2673 68.4448C31.8073 69.2448 30.6386 68.7822 29.9749 68.3572C29.3111 67.9322 28.5599 67.0947 28.2599 65.7072C27.9461 64.2572 28.2111 61.2821 28.1623 60.6446C27.9848 58.3321 27.5224 53.7947 26.5786 49.8947C26.0699 47.7947 25.5274 45.8572 24.6299 44.8947C21.3074 41.3322 15.9949 41.8572 11.5211 42.4447C11.0074 42.5072 10.4936 42.5823 9.98112 42.6448C8.15987 43.1823 6.22607 43.5822 4.18232 43.8197C1.09607 44.1822 0.588606 41.3447 0.561106 41.1572C0.503606 40.7447 0.289834 38.6197 2.61608 37.7697C2.86983 37.6822 4.74235 37.2697 5.4636 37.1072C6.4686 36.8822 7.48483 36.7073 8.50483 36.5448C19.0411 33.2698 24.7636 24.0697 25.7274 13.7947ZM29.3436 25.1573C33.3211 33.3823 39.3573 37.3572 46.5123 39.1572H46.5111C42.0436 41.4947 37.9798 44.4198 35.8261 47.3573C35.0086 48.4698 34.2586 50.7072 33.5823 53.2197C33.2161 50.8822 32.7211 48.3946 32.0674 46.2696C31.3236 43.8446 30.3223 41.8323 29.2048 40.6323C27.0473 38.3198 24.3398 37.0323 21.4286 36.3948C24.9136 33.3073 27.5561 29.4573 29.3436 25.1573Z" fill="#0E84DA"/>
</svg>
