<svg width="28" height="28" viewBox="0 0 28 28" fill="none" xmlns="http://www.w3.org/2000/svg">
<path d="M8.53719 6.02755L12.6131 5.88522L12.4352 0.790282C10.784 1.44808 9.38709 3.39729 8.53719 6.02755Z" fill="#159ED9"/>
<path d="M24.3475 5.93333C22.8517 4.00307 20.8592 2.45535 18.5847 1.5957C19.4945 2.81603 20.3115 4.30045 20.8847 6.10642L24.3493 5.98543L24.3475 5.93333Z" fill="#159ED9"/>
<path d="M22.5278 12.6807L27.128 12.5201C26.9721 10.8896 26.523 9.37497 25.8302 7.97436L21.873 8.11255C22.2195 9.52525 22.4212 11.0486 22.5278 12.6807Z" fill="#159ED9"/>
<path d="M14.4732 0.719116L14.6511 5.81405L18.727 5.67171C17.6957 3.10714 16.1663 1.26013 14.4732 0.719116Z" fill="#159ED9"/>
<path d="M22.2644 19.3213L26.2216 19.1831C26.7655 17.7393 27.1079 16.197 27.1992 14.5579L22.5989 14.7186C22.6047 16.3015 22.5115 17.8878 22.2644 19.3213Z" fill="#159ED9"/>
<path d="M15.3806 26.7035C16.9796 26.0475 18.3765 24.0983 19.2786 21.4662L15.2027 21.6085L15.3806 26.7035Z" fill="#159ED9"/>
<path d="M19.4387 26.0514C21.6665 24.9823 23.5658 23.3509 24.883 21.2702L21.4381 21.3905C20.9858 23.1801 20.2692 24.7703 19.4387 26.0514Z" fill="#159ED9"/>
<path d="M2.93276 6.22314L6.37769 6.10284C6.8814 4.31144 7.54665 2.72308 8.37706 1.44198C6.20072 2.50923 4.30329 4.19278 2.93276 6.22314Z" fill="#159ED9"/>
<path d="M20.0663 14.8071L14.9714 14.985L15.1315 19.5704L19.6211 19.4136C19.9245 17.9782 20.0711 16.39 20.0663 14.8071Z" fill="#159ED9"/>
<path d="M19.2297 8.20467L14.7401 8.36145L14.9002 12.9469L19.9951 12.769C19.8372 11.1386 19.582 9.61717 19.2297 8.20467Z" fill="#159ED9"/>
<path d="M11.2503 8.48365L2.43557 8.79146C1.60595 8.82043 1.007 9.50821 1.03384 10.2767L1.57415 25.7494C1.60278 26.5691 2.29831 27.1604 3.07608 27.1332L11.8908 26.8254C12.7204 26.7964 13.3193 26.1087 13.2925 25.3402L12.7522 9.8675C12.7236 9.04776 12.0799 8.45468 11.2503 8.48365ZM8.43281 25.9202L6.51432 25.9872C6.20321 25.9981 5.98686 25.7492 5.97792 25.493C5.96718 25.1856 6.21928 24.9716 6.47854 24.9626L8.39703 24.8956C8.70814 24.8847 8.92449 25.1336 8.93343 25.3898C8.94238 25.646 8.69207 25.9112 8.43281 25.9202ZM12.1714 22.9684C12.1857 23.3782 11.8853 23.6965 11.4705 23.711L3.3299 23.9953C2.91509 24.0098 2.59325 23.7132 2.57894 23.3034L2.13345 10.5461C2.11913 10.1362 2.4195 9.81795 2.83431 9.80347L10.9749 9.51919C11.3897 9.50471 11.7116 9.80125 11.7259 10.2111L12.1714 22.9684Z" fill="#657684"/>
<path d="M3.65919 11.8093L10.2402 11.5795C10.5586 11.5684 10.762 11.3062 10.7531 11.0515C10.7424 10.7458 10.4699 10.5512 10.2046 10.5605L3.62361 10.7903C3.30518 10.8014 3.10178 11.0636 3.11068 11.3183C3.12135 11.624 3.39383 11.8186 3.65919 11.8093Z" fill="#159ED9"/>
<path d="M3.75885 13.8464L7.22589 13.7253C7.56141 13.7136 7.7762 13.451 7.7673 13.1963C7.75663 12.8906 7.46991 12.6966 7.19031 12.7063L3.72327 12.8274C3.38775 12.8391 3.17297 13.1017 3.18186 13.3564C3.19254 13.6621 3.47925 13.8561 3.75885 13.8464Z" fill="#159ED9"/>
<path d="M10.3469 14.6367L3.76597 14.8665C3.44754 14.8776 3.24414 15.1398 3.25304 15.3945C3.26372 15.7002 3.53619 15.8947 3.80155 15.8855L10.3825 15.6557C10.7009 15.6445 10.9043 15.3824 10.8954 15.1276C10.8848 14.8219 10.6654 14.6255 10.3469 14.6367Z" fill="#159ED9"/>
<path d="M9.43877 16.7087L3.84434 16.9041C3.52158 16.9153 3.31531 17.1776 3.3242 17.4323C3.33488 17.738 3.61096 17.9324 3.87992 17.9231L9.42056 17.7296C9.74331 17.7183 9.94959 17.456 9.94069 17.2013C9.98381 16.8937 9.70773 16.6993 9.43877 16.7087Z" fill="#159ED9"/>
<path d="M7.39754 18.8203L3.9359 18.9412C3.60091 18.9529 3.38647 19.2154 3.39537 19.4702C3.40604 19.7759 3.69232 19.9699 3.97149 19.9602L7.43312 19.8393C7.76812 19.8276 7.98255 19.5651 7.97366 19.3103C8.02059 19.0536 7.73253 18.8086 7.39754 18.8203Z" fill="#159ED9"/>
</svg>
