<svg width="55" height="54" viewBox="0 0 55 54" fill="none" xmlns="http://www.w3.org/2000/svg">
<path fill-rule="evenodd" clip-rule="evenodd" d="M13.6951 35.112C17.4892 38.4563 20.1194 42.3868 23.0776 46.3965C23.6552 47.1797 23.4865 48.2809 22.704 48.8594C21.9211 49.4382 20.8162 49.2705 20.2381 48.4876C17.433 44.6855 14.9626 40.9294 11.3594 37.7522C10.6305 37.1097 10.5617 35.9949 11.2079 35.2685C11.8503 34.5376 12.9666 34.4692 13.6951 35.112Z" fill="#0E84DA"/>
<path fill-rule="evenodd" clip-rule="evenodd" d="M16.7262 21.4274C27.7464 22.8966 39.5989 26.3987 49.5896 31.3064C50.4617 31.7355 50.8204 32.7918 50.3884 33.6621C49.9563 34.5323 48.8999 34.8943 48.0279 34.4651C38.3676 29.7204 26.9046 26.3332 16.2511 24.9162C15.287 24.7863 14.6113 23.9 14.7432 22.9385C14.8751 21.9769 15.7621 21.2975 16.7262 21.4274Z" fill="#0E84DA"/>
<path fill-rule="evenodd" clip-rule="evenodd" d="M13.774 13.5197C19.2444 8.21999 26.8116 5.53777 34.1267 4.09318C35.083 3.90759 36.0083 4.52793 36.1925 5.47703C36.3795 6.43128 35.7548 7.35678 34.8018 7.54719C28.1383 8.86072 21.2059 11.2166 16.223 16.0426C15.5241 16.72 14.4074 16.7031 13.733 16.0084C13.0582 15.3141 13.0756 14.1967 13.774 13.5197Z" fill="#0E84DA"/>
</svg>
