<svg width="59" height="59" viewBox="0 0 59 59" fill="none" xmlns="http://www.w3.org/2000/svg">
<path fill-rule="evenodd" clip-rule="evenodd" d="M36.4241 47.9567C32.8862 49.5242 29.5464 51.6045 26.3247 53.6445C25.6326 54.0861 25.4134 55.0065 25.8799 55.6603C26.302 56.3517 27.2181 56.5444 27.8654 56.14C30.9859 54.1602 34.2166 52.1317 37.5951 50.6454C38.3175 50.3316 38.6563 49.4635 38.3391 48.7163C38.0223 47.9696 37.1469 47.6434 36.4241 47.9567Z" fill="#F1553F"/>
<path fill-rule="evenodd" clip-rule="evenodd" d="M35.5958 29.2741C27.0536 28.3618 18.4349 28.5421 9.8769 27.4284C9.09702 27.3083 8.36018 27.8782 8.264 28.6738C8.16818 29.4698 8.71562 30.2208 9.54029 30.3038C18.1099 31.4315 26.7398 31.2646 35.2936 32.191C36.1093 32.2631 36.831 31.6753 36.9171 30.8675C36.9587 30.0974 36.4115 29.3463 35.5958 29.2741Z" fill="#F1553F"/>
<path fill-rule="evenodd" clip-rule="evenodd" d="M29.1298 3.88178C31.5127 6.48209 33.8955 9.08263 36.2788 11.6834C36.7939 12.3045 37.7293 12.3382 38.3314 11.788C38.933 11.2374 38.9422 10.3375 38.4268 9.7159C36.0401 7.11108 33.654 4.50649 31.2676 1.90211C30.7078 1.31812 29.7751 1.28743 29.1761 1.84122C28.6218 2.35786 28.5703 3.29823 29.1298 3.88178Z" fill="#F1553F"/>
</svg>
