<svg width="172" height="116" viewBox="0 0 172 116" fill="none" xmlns="http://www.w3.org/2000/svg">
<path fill-rule="evenodd" clip-rule="evenodd" d="M112.271 60.1904C113.807 59.4576 115.342 58.708 116.598 58.003C139.072 45.5473 159.872 26.0352 171.598 3.15902C172.016 2.32565 171.737 1.29965 170.9 0.871101C170.062 0.442558 169.084 0.772003 168.665 1.60677C157.079 23.9009 136.839 42.8923 114.923 55.0325C114.225 55.4345 113.387 55.8519 112.549 56.2749C112.41 54.2019 111.712 52.4947 110.735 51.1184C109.2 49.0775 106.827 47.6914 104.035 46.9223C100.126 45.86 95.5204 45.9772 91.3326 46.9488C88.122 47.7277 85.1904 49.0594 83.3757 50.7024C81.8402 52.0271 81.0029 53.5738 80.8633 55.2042C80.7237 56.9212 81.4208 58.828 83.5147 60.7432C87.0045 64.0669 91.7514 65.0538 96.9163 64.6322C100.685 64.3195 104.593 63.2279 108.223 61.8711C107.804 63.0046 107.245 64.2288 106.547 65.5493C100.964 75.4701 87.5637 84.8171 71.7899 92.5644C47.7802 104.329 18.1865 112.303 1.71477 112.382C0.877211 112.386 0.0393965 113.151 0.0393964 114.089C0.0393964 115.027 0.877211 115.785 1.71477 115.781C18.6053 115.7 48.7568 107.626 73.3248 95.6159C89.7966 87.5126 103.756 77.5751 109.48 67.1965C110.875 64.5861 111.853 62.2578 112.271 60.1904ZM109.2 57.8271C109.34 55.9161 108.921 54.3764 108.084 53.1592C106.967 51.6865 105.152 50.754 103.198 50.1999C99.8477 49.2786 95.799 49.414 92.1697 50.2571C89.657 50.8615 87.2845 51.8247 85.749 53.0768C84.9114 53.7846 84.3523 54.5537 84.2127 55.4415C84.2127 56.3475 84.7719 57.2688 85.749 58.2794C88.6804 60.9428 92.5887 61.5821 96.6368 61.2443C100.825 60.8926 105.431 59.4659 109.2 57.8271Z" fill="#0E84DA"/>
<path fill-rule="evenodd" clip-rule="evenodd" d="M168.704 1.76893C165.214 10.9387 164.515 21.6984 165.771 31.4C165.911 32.331 166.748 32.9927 167.586 32.8755C168.563 32.7596 169.262 31.9095 169.122 30.9798C168.005 21.8128 168.564 11.6436 171.914 2.97917C172.193 2.10254 171.774 1.11983 170.937 0.784809C169.959 0.451187 168.983 0.892297 168.704 1.76893Z" fill="#0E84DA"/>
<path fill-rule="evenodd" clip-rule="evenodd" d="M168.752 1.28268C162.75 8.52467 152.559 11.4854 143.485 12.6217C142.648 12.7389 141.95 13.5904 142.09 14.5215C142.229 15.4512 143.067 16.1115 144.044 15.9942C153.816 14.7546 164.843 11.3374 171.404 3.43798C171.962 2.7121 171.822 1.64142 171.124 1.04676C170.426 0.450706 169.311 0.558201 168.752 1.28268Z" fill="#0E84DA"/>
</svg>
