<svg width="146" height="163" viewBox="0 0 146 163" fill="none" xmlns="http://www.w3.org/2000/svg">
<g clip-path="url(#clip0_54_558)">
<path fill-rule="evenodd" clip-rule="evenodd" d="M95.5332 92.1738C95.9688 93.2286 96.3966 94.2914 96.7057 95.2068C102.305 111.506 103.9 130.567 99.4646 147.228C99.2988 147.831 98.6989 148.217 98.0893 148.054C97.4796 147.891 97.1405 147.288 97.3069 146.684C101.55 130.376 99.9995 111.825 94.537 95.9338C94.3699 95.4201 94.1401 94.8358 93.9129 94.249C92.9123 95.2187 91.7979 95.7557 90.693 96.0023C89.0115 96.329 87.207 95.9536 85.471 95.0827C83.0471 93.8561 80.8056 91.7288 79.1562 89.3638C77.907 87.5337 77.045 85.5536 76.8791 83.9201C76.7094 82.5706 76.9871 81.4241 77.6499 80.5494C78.3516 79.6315 79.5554 78.9949 81.4585 78.9815C84.6897 78.8936 87.4973 80.5343 89.8804 83.0643C91.6172 84.9129 93.0733 87.2121 94.2716 89.5181C94.5721 88.7655 94.8438 87.9048 95.0893 86.9335C96.7645 79.4842 94.2888 68.8096 89.9122 57.8655C83.2381 41.2211 72.0798 23.9567 63.9114 16.5182C63.4961 16.14 63.4224 15.3826 63.8438 14.9154C64.2651 14.4482 65.0229 14.447 65.4382 14.8253C73.8146 22.4525 85.2056 40.0175 92.0474 57.0352C96.6118 68.47 99.101 79.6901 97.2897 87.4302C96.8124 89.3574 96.2532 90.956 95.5332 92.1738ZM92.9419 91.9713C92.1531 92.9859 91.253 93.5648 90.2891 93.7948C89.0714 94.0267 87.7487 93.676 86.5264 93.0742C84.4439 92.0283 82.4881 90.1422 81.0592 88.092C80.0792 86.6623 79.3301 85.1169 79.1278 83.8035C79.0285 83.0748 79.0955 82.4405 79.4248 81.9356C79.8317 81.4844 80.524 81.2767 81.4647 81.2123C84.1211 81.2024 86.3549 82.6395 88.2194 84.6261C90.1472 86.6824 91.8008 89.4621 92.9419 91.9713Z" fill="#0E84DA"/>
<path fill-rule="evenodd" clip-rule="evenodd" d="M97.3987 146.62C99.7794 140.486 104.264 134.813 109.248 130.545C109.736 130.144 110.45 130.19 110.814 130.625C111.249 131.122 111.215 131.859 110.728 132.259C106.054 136.323 101.765 141.639 99.5413 147.46C99.2866 148.022 98.6365 148.323 98.0688 148.114C97.4323 147.841 97.144 147.182 97.3987 146.62Z" fill="#0E84DA"/>
<path fill-rule="evenodd" clip-rule="evenodd" d="M97.2046 146.884C97.468 140.581 93.722 134.529 89.7132 129.887C89.3487 129.453 89.3835 128.715 89.8713 128.314C90.3584 127.914 91.0724 127.961 91.5064 128.459C95.8165 133.465 99.7739 140.12 99.4934 147.002C99.4454 147.614 98.8948 148.085 98.2801 148.067C97.6647 148.051 97.1573 147.496 97.2046 146.884Z" fill="#0E84DA"/>
</g>
<defs>
<clipPath id="clip0_54_558">
<rect width="115.361" height="115.361" fill="white" transform="matrix(-0.742615 -0.669719 -0.669719 0.742615 162.928 77.2595)"/>
</clipPath>
</defs>
</svg>
