<svg width="24" height="28" viewBox="0 0 24 28" fill="none" xmlns="http://www.w3.org/2000/svg">
<g clip-path="url(#clip0_3_1837)">
<path d="M7.77233 10.8652C7.76422 11.0976 7.55878 11.279 7.31347 11.2705C7.06816 11.2619 6.87587 11.0666 6.88399 10.8342C6.8921 10.6018 7.09754 10.4203 7.34285 10.4289C7.58817 10.4374 7.78045 10.6328 7.77233 10.8652Z" fill="#10B3EA"/>
<path d="M5.09711 14.2476C5.08899 14.48 4.88355 14.6614 4.63824 14.6529C4.39293 14.6443 4.20064 14.4489 4.20876 14.2165C4.21687 13.9842 4.42232 13.8027 4.66763 13.8113C4.91294 13.8198 5.10522 14.0152 5.09711 14.2476Z" fill="#10B3EA"/>
<path d="M7.5262 17.9135C7.51809 18.1459 7.31264 18.3274 7.06733 18.3188C6.82202 18.3102 6.62974 18.1149 6.63785 17.8825C6.64597 17.6501 6.85141 17.4687 7.09672 17.4772C7.34203 17.4858 7.53432 17.6811 7.5262 17.9135Z" fill="#10B3EA"/>
<path fill-rule="evenodd" clip-rule="evenodd" d="M20.195 27.6247C21.7282 27.6783 23.0121 26.5466 23.0627 25.097L23.685 7.27881C23.7102 6.55639 23.4194 5.85492 22.881 5.33965L19.7143 2.30888C19.2151 1.8311 18.5424 1.55117 17.8339 1.52643L4.66796 1.06667C3.13477 1.01313 1.85084 2.14483 1.80022 3.59439L1.07614 24.3292C1.02552 25.7788 2.22739 26.9973 3.76058 27.0508L20.195 27.6247ZM11.9557 20.3185L11.7567 26.0161L20.2408 26.3124C21.0074 26.3392 21.6494 25.7733 21.6747 25.0485L22.2613 8.2507L19.4852 8.15376C17.952 8.10022 16.7502 6.88171 16.8008 5.43215L16.8924 2.80749L12.6207 2.65832L12.375 9.69571C12.3578 10.1886 11.9212 10.5731 11.4 10.5549L9.63496 10.4933L9.62144 10.4918C9.38291 10.4654 8.82493 10.4038 8.40525 9.94997C7.97743 9.48732 7.33907 9.49136 7.00282 9.58496C6.67611 9.67012 6.0159 10.0351 5.98871 10.8137C5.95473 11.7869 6.74652 12.1569 7.32852 12.1772C7.84513 12.1953 7.99415 12.0967 8.08054 12.0396C8.09148 12.0324 8.10142 12.0258 8.11097 12.0202C8.12238 12.0135 8.14267 11.9967 8.17165 11.9727C8.35843 11.8177 8.90636 11.3633 9.77002 11.3934L14.6755 11.5647C14.7169 11.5586 14.7653 11.5533 14.8196 11.5473C15.1437 11.5116 15.6788 11.4527 16.1914 11.0646C16.4851 10.8642 17.2027 10.5521 17.7231 10.9074L17.727 10.9098C18.0017 11.0792 18.726 11.546 18.4725 12.4806C18.3893 12.6673 18.0006 13.5221 16.9411 13.4347C16.8856 13.4209 16.8355 13.414 16.7862 13.4072C16.6156 13.3836 16.4557 13.3614 16.1216 13.0637C15.691 12.6799 15.3926 12.4852 14.6997 12.461L13.0368 12.4029C12.7686 12.4023 12.2263 12.5695 12.2028 13.2429C12.1734 14.0846 11.4224 14.1374 10.9512 14.1209L7.07114 13.9854C6.83095 13.977 6.05505 13.6817 5.62522 13.2765C5.46404 13.1246 4.67358 12.7166 3.90507 13.2691C3.56362 13.5118 3.0232 14.2075 3.59318 15.0491C3.94061 15.4299 4.48021 15.8701 5.40674 15.5601C5.5312 15.5185 5.64736 15.437 5.78002 15.344C6.09622 15.1222 6.50617 14.8348 7.34569 14.8641L17.1844 15.2077C17.4243 15.2248 18.0469 15.143 18.6181 14.6783C19.3321 14.0975 20.4162 14.5446 20.7125 15.0938C20.9731 15.577 21.0527 16.4752 20.1207 16.943C19.8571 17.0743 19.1732 17.2154 18.5464 16.73C17.9196 16.2446 17.3564 16.1091 17.1532 16.102L12.9128 15.9539C12.644 15.9709 12.1005 16.1731 12.077 16.8465C12.0476 17.6882 11.2429 17.6864 10.8272 17.6719L9.38603 17.6216C9.17386 17.6054 8.6257 17.4633 8.13045 17.0247C7.51138 16.4763 6.40371 16.4113 5.92904 17.2902C5.45437 18.169 5.92477 19.0018 6.55669 19.1819C7.18862 19.362 7.54799 19.4009 8.26107 18.8464C8.76456 18.4549 9.40473 18.4826 10.2341 18.5184C10.3444 18.5232 10.458 18.5281 10.5752 18.5322L14.6215 18.6735C14.8799 18.6913 15.5115 18.615 15.9711 18.1676C16.4247 17.8937 17.7465 17.3868 18.2734 18.9854C18.4454 19.6234 17.9125 20.5792 16.7762 20.5396C16.573 20.5325 16.0647 20.4146 15.6574 20.0001C15.2554 19.5909 14.9043 19.5787 13.7226 19.5375L12.7888 19.5049C12.5206 19.5043 11.9785 19.6662 11.9557 20.3185ZM16.6853 12.1633C16.6352 11.8463 16.9277 11.5884 17.2588 11.6578C17.4463 11.7011 17.5859 11.8427 17.6185 12.0225C17.6686 12.3396 17.3761 12.5974 17.045 12.528C16.8575 12.4847 16.7123 12.343 16.6853 12.1633ZM19.69 15.264C19.3589 15.1947 19.0664 15.4525 19.1164 15.7696C19.1435 15.9492 19.2887 16.0909 19.4761 16.1343C19.8073 16.2037 20.0998 15.9458 20.0497 15.6287C20.0171 15.4489 19.8775 15.3074 19.69 15.264ZM16.4915 19.3044C16.4414 18.9873 16.7339 18.7294 17.065 18.7988C17.2525 18.8422 17.3921 18.9837 17.4247 19.1635C17.4748 19.4806 17.1823 19.7384 16.8512 19.6691C16.6637 19.6257 16.5186 19.484 16.4915 19.3044Z" fill="#10B3EA"/>
</g>
<defs>
<clipPath id="clip0_3_1837">
<rect width="22" height="26" fill="white" transform="translate(1.89188 0.969727) rotate(2)"/>
</clipPath>
</defs>
</svg>
