<svg width="46" height="46" viewBox="0 0 46 46" fill="none" xmlns="http://www.w3.org/2000/svg">
<g opacity="0.5" clip-path="url(#clip0_16_1226)">
<path fill-rule="evenodd" clip-rule="evenodd" d="M9.616 25.2716C10.9588 24.2208 12.3217 22.9647 13.2099 21.5078C14.2649 19.7774 14.3294 17.9802 14.1697 16.1642C13.9642 13.8314 13.4026 11.4605 13.3053 9.08763C13.2686 8.20667 13.6122 7.75449 13.7581 7.556C14.1271 7.05451 14.5845 6.80088 15.0547 6.68207C15.6117 6.54021 16.4273 6.49698 17.2224 7.24484C17.336 7.35196 17.4933 7.52041 17.6454 7.77232C17.7566 7.9571 17.9936 8.57183 18.1267 8.81353C18.4563 9.40813 18.7666 10.0092 19.0719 10.6158C20.0883 12.6346 20.8668 14.3775 22.493 16.0013C24.7001 18.2061 26.5674 19.3827 28.6069 19.4998C30.579 19.613 32.6171 18.7887 35.0953 17.3584C35.328 17.2128 35.5609 17.0767 35.7944 16.9512C36.8987 16.3554 38.2762 16.7515 38.8959 17.843C39.5153 18.9335 39.1493 20.3194 38.0727 20.9634C37.848 21.0977 37.6258 21.2281 37.4049 21.3534C34.1075 23.4411 31.0055 28.0032 29.5144 31.5895C29.055 32.6953 28.7628 35.4558 28.1594 37.3558C27.714 38.7575 27.0388 39.8086 26.3514 40.3297C25.891 40.6797 25.4442 40.7985 25.0527 40.8297C24.4841 40.8753 23.9531 40.736 23.4677 40.3947C23.2029 40.2076 22.9233 39.9321 22.7014 39.5351C22.5949 39.3439 22.4177 38.827 22.3404 38.592C21.8535 37.8873 21.3219 37.218 20.8572 36.4981C19.7485 34.7806 18.4055 33.9069 16.7574 32.7107C15.2156 31.591 13.778 31.0437 11.8762 30.8583C11.6433 30.8776 9.76316 31.0314 9.06784 30.9917C8.05173 30.9324 7.42441 30.475 7.16169 30.2036C6.71538 29.7432 6.52859 29.2733 6.44803 28.8564C6.32951 28.2411 6.42585 27.6486 6.75949 27.0849C6.96587 26.7349 7.31819 26.344 7.85967 26.0302C8.27767 25.7868 9.45137 25.3352 9.616 25.2716ZM18.7931 18.8109C18.9335 18.9636 19.0795 19.1154 19.2313 19.2671C22.4638 22.4962 25.3551 23.9367 28.3427 24.1075L28.4426 24.1122C27.1147 26.0104 26.0054 28.007 25.2526 29.8177C24.9426 30.5632 24.6773 31.9856 24.3688 33.4565C23.0076 31.5507 21.439 30.4059 19.4695 28.9753C17.9653 27.8838 16.5303 27.1634 14.9158 26.7247C15.7658 25.8566 16.5385 24.914 17.1506 23.9102C18.1696 22.2384 18.6446 20.5369 18.7931 18.8109Z" fill="#0E84DA"/>
</g>
<defs>
<clipPath id="clip0_16_1226">
<rect width="36" height="36" fill="white" transform="translate(0.231567 11.6157) rotate(-18.4349)"/>
</clipPath>
</defs>
</svg>
