<svg width="28" height="28" viewBox="0 0 28 28" fill="none" xmlns="http://www.w3.org/2000/svg">
<path d="M10.8408 4.98615C10.5808 3.96656 9.53996 3.33291 8.56664 3.73269C7.14131 4.31813 5.83413 5.16026 4.71516 6.22097C3.13821 7.71583 1.99063 9.59216 1.38777 11.6614C0.784904 13.7306 0.747998 15.9198 1.28076 18.0089C1.81352 20.098 2.89718 22.0135 4.42281 23.5627C5.94844 25.112 7.86229 26.2405 9.97201 26.8347C12.0817 27.429 14.313 27.4681 16.4414 26.9482C18.5699 26.4282 20.5207 25.3675 22.0977 23.8726C23.1929 22.8344 24.0811 21.6121 24.7235 20.269C25.1912 19.2909 24.5741 18.1925 23.5305 17.8986C22.5 17.6083 21.4465 18.22 20.9188 19.1514C20.5096 19.8736 19.9925 20.5358 19.3818 21.1147C18.2976 22.1424 16.9564 22.8717 15.493 23.2292C14.0297 23.5867 12.4957 23.5598 11.0452 23.1512C9.59474 22.7426 8.27893 21.9668 7.23004 20.9016C6.18114 19.8365 5.43611 18.5196 5.06983 17.0833C4.70355 15.647 4.72892 14.1419 5.1434 12.7193C5.55788 11.2967 6.34686 10.0066 7.43104 8.9789C8.04707 8.39494 8.74607 7.90734 9.50332 7.52956C10.4584 7.05306 11.1045 6.02041 10.8408 4.98615Z" fill="url(#paint0_radial_3_1823)"/>
<path d="M24.8275 15.569C25.8826 15.7682 26.9175 15.0756 26.951 14.0024C26.9892 12.7783 26.8404 11.5515 26.5063 10.3634C25.9962 8.5493 25.0677 6.87414 23.7927 5.46748C22.5178 4.06081 20.9305 2.96034 19.1537 2.2512C17.9734 1.78014 16.7305 1.49014 15.4684 1.38798C14.4104 1.30233 13.61 2.23836 13.6889 3.29696C13.7673 4.34951 14.6903 5.1189 15.7343 5.2742C16.4015 5.37344 17.0567 5.54974 17.6861 5.80092C18.9077 6.28846 19.999 7.04505 20.8755 8.01216C21.7521 8.97927 22.3904 10.131 22.7411 11.3782C22.9136 11.9915 23.0143 12.6198 23.0426 13.2511C23.0911 14.3326 23.7638 15.3681 24.8275 15.569Z" fill="url(#paint1_radial_3_1823)"/>
<path fill-rule="evenodd" clip-rule="evenodd" d="M18.5616 10.3306C19.2212 11.0246 19.1832 12.111 18.4768 12.7573L14.6007 16.3034C13.8943 16.9497 12.787 16.911 12.1274 16.2171C11.4678 15.5231 11.5057 14.4366 12.2121 13.7904L16.0882 10.2442C16.7946 9.59798 17.902 9.63665 18.5616 10.3306Z" fill="url(#paint2_linear_3_1823)"/>
<defs>
<radialGradient id="paint0_radial_3_1823" cx="0" cy="0" r="1" gradientUnits="userSpaceOnUse" gradientTransform="translate(13.4064 15.0468) rotate(92) scale(12.2642 12.5)">
<stop stop-color="#61FFFF"/>
<stop offset="1" stop-color="#3D44E4"/>
</radialGradient>
<radialGradient id="paint1_radial_3_1823" cx="0" cy="0" r="1" gradientUnits="userSpaceOnUse" gradientTransform="translate(14.4572 13.6109) rotate(92) scale(13.4906 13.75)">
<stop stop-color="#61FFF6"/>
<stop offset="1" stop-color="#2BC23A"/>
</radialGradient>
<linearGradient id="paint2_linear_3_1823" x1="11.856" y1="16.4654" x2="17.3911" y2="11.1095" gradientUnits="userSpaceOnUse">
<stop stop-color="#BE1111"/>
<stop offset="1" stop-color="#E87240"/>
</linearGradient>
</defs>
</svg>
