<svg width="131" height="131" viewBox="0 0 131 131" fill="none" xmlns="http://www.w3.org/2000/svg">
<g clip-path="url(#clip0_16_1288)">
<path fill-rule="evenodd" clip-rule="evenodd" d="M88.67 100.753C88.5302 100.995 88.4154 101.228 88.3439 101.433C87.53 103.8 87.12 106.251 86.4987 108.668C84.7406 115.508 85.0636 122.82 87.6077 129.396C87.8531 130.03 88.5675 130.344 89.2012 130.098C89.8349 129.853 90.1487 129.142 89.9033 128.508C87.5425 122.407 87.2505 115.623 88.8813 109.28C89.487 106.925 89.8816 104.539 90.6737 102.231C90.7917 101.887 91.1334 101.452 91.4067 101.032C91.7018 100.573 91.9441 100.125 92.0435 99.7681C92.2081 99.1779 92.1025 98.6871 91.8416 98.3112C91.6552 98.0441 91.3725 97.7986 90.9159 97.6682C90.7295 97.6154 90.4065 97.5781 89.9623 97.6775C89.2851 97.8266 87.8593 98.4013 85.9893 99.153C82.9264 100.389 78.5898 102.116 74.4863 103.005C71.9143 103.564 69.4417 103.806 67.4878 103.303C66.8292 103.132 66.1583 103.53 65.9874 104.188C65.8166 104.844 66.2142 105.518 66.8727 105.689C69.1404 106.273 72.0168 106.062 75.0083 105.412C79.2515 104.49 83.7433 102.713 86.9118 101.436C87.5206 101.191 88.1295 100.955 88.67 100.753Z" fill="#3B3E45"/>
<path fill-rule="evenodd" clip-rule="evenodd" d="M85.6969 101.819C83.1559 113.785 77.0922 120.134 70.1216 121.722C59.6314 124.11 47.4762 115.785 43.0124 100.577C31.8419 62.5176 59.0287 23.0979 88.7286 2.83518C89.2908 2.45 89.4337 1.68583 89.0517 1.12357C88.6696 0.561325 87.9024 0.418419 87.3401 0.800507C56.8482 21.6038 29.1798 62.1945 40.6485 101.269C45.5472 117.96 59.1562 126.745 70.6684 124.123C78.3659 122.368 85.2993 115.546 88.1043 102.332C88.2441 101.667 87.8184 101.011 87.1568 100.872C86.492 100.729 85.8367 101.154 85.6969 101.819Z" fill="#3B3E45"/>
</g>
<defs>
<clipPath id="clip0_16_1288">
<rect width="130" height="130" fill="white" transform="translate(130.081 130.182) rotate(180)"/>
</clipPath>
</defs>
</svg>
