<svg width="19" height="19" viewBox="0 0 19 19" fill="none" xmlns="http://www.w3.org/2000/svg">
<path fill-rule="evenodd" clip-rule="evenodd" d="M13.0348 0H5.69416C2.71088 0 0.283813 2.42707 0.283813 5.41035V12.7509C0.283813 15.7342 2.71088 18.1613 5.69416 18.1613H13.0348C16.018 18.1613 18.4451 15.7342 18.4451 12.7509V5.41035C18.4451 2.42707 16.018 0 13.0348 0ZM16.6183 12.7511C16.6183 14.7301 15.014 16.3344 13.035 16.3344H5.69437C3.71537 16.3344 2.11105 14.7301 2.11105 12.7511V5.41049C2.11105 3.43146 3.71537 1.82717 5.69437 1.82717H13.035C15.014 1.82717 16.6183 3.43146 16.6183 5.41049V12.7511ZM4.66724 9.08091C4.66724 6.49093 6.77438 4.38379 9.36439 4.38379C11.9544 4.38379 14.0615 6.4909 14.0615 9.08091C14.0615 11.6709 11.9544 13.7781 9.36439 13.7781C6.77438 13.7781 4.66724 11.6709 4.66724 9.08091ZM9.36431 11.9504C7.77917 11.9504 6.49418 10.6654 6.49418 9.08024C6.49418 7.49509 7.7792 6.21011 9.36431 6.21011C10.9495 6.21011 12.2344 7.49509 12.2344 9.08024C12.2344 10.6653 10.9494 11.9504 9.36431 11.9504ZM15.1964 4.4161C15.1964 5.03771 14.6925 5.54163 14.0709 5.54163C13.4493 5.54163 12.9453 5.03771 12.9453 4.4161C12.9453 3.79448 13.4493 3.29056 14.0709 3.29056C14.6925 3.29056 15.1964 3.79448 15.1964 4.4161Z" fill="#151515"/>
</svg>
