<svg width="28" height="28" viewBox="0 0 28 28" fill="none" xmlns="http://www.w3.org/2000/svg">
<circle cx="14" cy="14" r="14" fill="#E53719"/>
<path fill-rule="evenodd" clip-rule="evenodd" d="M9.92698 22C9.77566 22 9.62879 21.945 9.51435 21.8444L7.45313 20.0331C6.7296 19.3119 6.87901 18.0806 7.85494 16.3331C8.6802 14.8537 10.0185 13.1569 11.622 11.5556C14.3889 8.78813 17.2277 7 18.8541 7C19.4441 7 19.7976 7.22938 19.9896 7.42188L21.8423 9.50125C21.9529 9.62625 22.0095 9.79 21.9987 9.95687C21.9879 10.1237 21.911 10.2787 21.7844 10.3888L18.6583 13.0975C18.4675 13.2631 18.1941 13.2975 17.9691 13.1844L15.871 12.1356L12.1319 15.8737L13.1809 17.9706C13.2935 18.1962 13.2604 18.4675 13.0951 18.6587L10.4006 21.7831C10.2913 21.9094 10.1368 21.9869 9.97021 21.9987C9.95559 21.9994 9.94097 22 9.92698 22ZM18.8541 8.25C17.7815 8.25 15.2562 9.68875 12.5057 12.4394C10.9818 13.9619 9.7178 15.5612 8.94659 16.9425C8.10799 18.4444 8.21862 19.0331 8.29491 19.1088L9.86531 20.4888L11.8763 18.1575L10.812 16.03C10.6918 15.7894 10.7395 15.4987 10.9296 15.3081L15.3057 10.9338C15.4971 10.7425 15.7864 10.6962 16.0274 10.8162L18.1547 11.8794L20.4868 9.85812L19.1192 8.31938C19.0601 8.2725 18.9825 8.25 18.8541 8.25Z" fill="white"/>
</svg>
