<svg width="28" height="28" viewBox="0 0 28 28" fill="none" xmlns="http://www.w3.org/2000/svg">
<circle cx="14" cy="14" r="13.5" fill="#E53719" stroke="#E53719"/>
<path fill-rule="evenodd" clip-rule="evenodd" d="M14.3978 21.8494C14.2836 21.95 14.1418 22 14 22C13.8582 22 13.7164 21.95 13.6022 21.8494C13.3938 21.6663 8.5 17.3156 8.5 12.6519C8.5 9.53562 10.9671 7 14 7C17.0329 7 19.5 9.53562 19.5 12.6519C19.5 17.3156 14.6062 21.6663 14.3978 21.8494ZM14 8.25C11.6417 8.25 9.72222 10.2244 9.72222 12.6519C9.72222 16.0281 12.8682 19.4162 13.9994 20.525C15.1306 19.415 18.2778 16.0219 18.2778 12.6519C18.2778 10.2244 16.3583 8.25 14 8.25ZM14 15.1713C12.6519 15.1713 11.5556 14.05 11.5556 12.6713C11.5556 11.2925 12.6519 10.1712 14 10.1712C15.3481 10.1712 16.4444 11.2925 16.4444 12.6713C16.4444 14.05 15.3481 15.1713 14 15.1713ZM14 11.4212C13.3266 11.4212 12.7778 11.9825 12.7778 12.6713C12.7778 13.3606 13.3266 13.9213 14 13.9213C14.6734 13.9213 15.2222 13.3606 15.2222 12.6713C15.2222 11.9825 14.6734 11.4212 14 11.4212Z" fill="white"/>
</svg>
