<svg width="28" height="28" viewBox="0 0 28 28" fill="none" xmlns="http://www.w3.org/2000/svg">
<circle cx="14" cy="14" r="14" fill="#E53719"/>
<path fill-rule="evenodd" clip-rule="evenodd" d="M19.25 20H8.75C7.78517 20 7 19.1774 7 18.1667V10.8333C7 9.82256 7.78517 9 8.75 9H19.25C20.2148 9 21 9.82256 21 10.8333V18.1667C21 19.1774 20.2148 20 19.25 20ZM8.75 18.7778H19.25C19.5714 18.7778 19.8333 18.504 19.8333 18.1667V10.9574L14.3663 15.5859C14.2596 15.677 14.1301 15.7222 14 15.7222C13.8699 15.7222 13.7404 15.677 13.6337 15.5859L8.16667 10.9574V18.1667C8.16667 18.504 8.42858 18.7778 8.75 18.7778ZM18.8463 10.2222H9.15367L14 14.3252L18.8463 10.2222Z" fill="white"/>
</svg>
