<svg width="19" height="19" viewBox="0 0 19 19" fill="none" xmlns="http://www.w3.org/2000/svg">
<path d="M18.2766 13.2563L14.5173 11.3767C14.3409 11.2886 14.1412 11.2583 13.9465 11.29C13.7519 11.3217 13.5722 11.4139 13.4328 11.5534L11.8586 13.1276C9.59645 12.7639 6.03173 9.20009 5.66896 6.93795L7.24315 5.36376C7.38267 5.22438 7.47481 5.04465 7.50652 4.85C7.53823 4.65536 7.5079 4.45567 7.41984 4.27922L5.54021 0.519957C5.47868 0.396733 5.39081 0.28854 5.28284 0.203035C5.17486 0.11753 5.04941 0.0568027 4.91536 0.0251517C4.78132 -0.0064993 4.64195 -0.00830049 4.50713 0.0198755C4.37231 0.0480516 4.24534 0.105516 4.13519 0.188202L0.375926 3.00765C0.259205 3.09519 0.164468 3.2087 0.0992188 3.3392C0.0339696 3.4697 0 3.6136 0 3.7595C0 12.7535 6.04301 18.7965 15.037 18.7965C15.1829 18.7965 15.3268 18.7626 15.4573 18.6973C15.5878 18.6321 15.7014 18.5373 15.7889 18.4206L18.6083 14.6614C18.691 14.5512 18.7485 14.4242 18.7767 14.2894C18.8048 14.1546 18.803 14.0152 18.7714 13.8812C18.7397 13.7471 18.679 13.6217 18.5935 13.5137C18.508 13.4057 18.3998 13.3179 18.2766 13.2563Z" fill="#E53719"/>
<path d="M10.8079 1.87987C12.4274 1.88186 13.98 2.52611 15.1252 3.6713C16.2704 4.81649 16.9147 6.36913 16.9167 7.98867C16.9167 8.23793 17.0157 8.47697 17.1919 8.65322C17.3682 8.82947 17.6072 8.92849 17.8565 8.92849C18.1057 8.92849 18.3448 8.82947 18.521 8.65322C18.6973 8.47697 18.7963 8.23793 18.7963 7.98867C18.7938 5.87077 17.9514 3.84033 16.4538 2.34275C14.9562 0.845166 12.9258 0.0027314 10.8079 0.000244141C10.5586 0.000244141 10.3196 0.09926 10.1433 0.27551C9.96706 0.451759 9.86804 0.690805 9.86804 0.940059C9.86804 1.18931 9.96706 1.42836 10.1433 1.60461C10.3196 1.78086 10.5586 1.87987 10.8079 1.87987Z" fill="#E53719"/>
<path d="M10.8079 5.63915C11.431 5.63915 12.0286 5.88669 12.4692 6.32731C12.9099 6.76794 13.1574 7.36555 13.1574 7.98869C13.1574 8.23794 13.2564 8.47699 13.4327 8.65324C13.6089 8.82949 13.848 8.9285 14.0972 8.9285C14.3465 8.9285 14.5855 8.82949 14.7618 8.65324C14.938 8.47699 15.037 8.23794 15.037 7.98869C15.037 6.86704 14.5915 5.79134 13.7983 4.99822C13.0052 4.20509 11.9295 3.75952 10.8079 3.75952C10.5586 3.75952 10.3196 3.85854 10.1433 4.03479C9.96706 4.21104 9.86804 4.45008 9.86804 4.69934C9.86804 4.94859 9.96706 5.18764 10.1433 5.36389C10.3196 5.54014 10.5586 5.63915 10.8079 5.63915Z" fill="#E53719"/>
</svg>
