<svg width="48" height="48" viewBox="0 0 48 48" fill="none" xmlns="http://www.w3.org/2000/svg">
<g clip-path="url(#clip0_16_1265)">
<path fill-rule="evenodd" clip-rule="evenodd" d="M41.3221 13.4037C35.7818 29.0977 21.1359 37.4026 5.41752 31.4923C4.89424 31.2955 4.3105 31.56 4.11275 32.0774C3.91633 32.6032 4.18092 33.1878 4.70419 33.3846C21.5534 39.7275 37.2916 30.8967 43.2313 14.0806C43.4175 13.5563 43.1402 12.9736 42.6131 12.7861C42.0874 12.607 41.5084 12.8795 41.3221 13.4037Z" fill="#2BC23A"/>
<path d="M16.6148 23.3918C18.2239 23.1419 19.3258 21.635 19.0759 20.026C18.8261 18.4169 17.3191 17.3151 15.7101 17.5649C14.101 17.8148 12.9992 19.3217 13.249 20.9308C13.4989 22.5398 15.0058 23.6416 16.6148 23.3918Z" fill="#2BC23A"/>
<path d="M28.1948 18.4197C29.7724 18.1748 30.8527 16.6973 30.6077 15.1197C30.3628 13.5421 28.8853 12.4618 27.3077 12.7068C25.7301 12.9517 24.6498 14.4292 24.8947 16.0068C25.1397 17.5844 26.6172 18.6647 28.1948 18.4197Z" fill="#2BC23A"/>
</g>
<defs>
<clipPath id="clip0_16_1265">
<rect width="42" height="42" fill="white" transform="translate(0 6.44452) rotate(-8.82637)"/>
</clipPath>
</defs>
</svg>
