<svg width="24" height="24" viewBox="0 0 24 24" fill="none" xmlns="http://www.w3.org/2000/svg">
<path d="M12 1C9.08262 1 6.28473 2.15893 4.22183 4.22183C2.15893 6.28473 1 9.08262 1 12C1 14.9174 2.15893 17.7153 4.22183 19.7782C6.28473 21.8411 9.08262 23 12 23C14.9174 23 17.7153 21.8411 19.7782 19.7782C21.8411 17.7153 23 14.9174 23 12C23 9.08262 21.8411 6.28473 19.7782 4.22183C17.7153 2.15893 14.9174 1 12 1V1ZM2.35667 12.8311H5.42444C5.47333 13.9433 5.62856 15.0482 5.88889 16.1311H3.24889C2.75658 15.0933 2.45439 13.9756 2.35667 12.8311ZM12.8311 6.23111V2.45444C14.0089 2.90205 14.9768 3.77398 15.5444 4.89889C15.795 5.323 16.0162 5.76422 16.2044 6.21889L12.8311 6.23111ZM16.7667 7.88111C17.0502 8.96033 17.2189 10.0664 17.2678 11.1811H12.8311V7.88111H16.7667ZM11.1689 2.45444V6.23111H7.79556C7.9841 5.77607 8.20465 5.33497 8.45556 4.91111C9.02079 3.7816 9.98894 2.90503 11.1689 2.45444ZM11.1689 7.88111V11.1811H6.74444C6.79333 10.0664 6.962 8.96033 7.24556 7.88111H11.1689ZM5.42444 11.1689H2.35667C2.45439 10.0244 2.75658 8.9067 3.24889 7.86889H5.88889C5.62806 8.95134 5.47252 10.0565 5.42444 11.1689ZM6.74444 12.8311H11.1689V16.1311H7.24556C6.96204 15.052 6.79406 13.9458 6.74444 12.8311ZM11.1811 17.72V21.4967C10.0033 21.0491 9.03543 20.1771 8.46778 19.0522C8.21687 18.6284 7.99632 18.1873 7.80778 17.7322L11.1811 17.72ZM12.8311 21.4967V17.7811H16.2044C16.0159 18.2361 15.7953 18.6773 15.5444 19.1011C14.9768 20.226 14.0089 21.0979 12.8311 21.5456V21.4967ZM12.8311 16.07V12.77H17.2556C17.2059 13.8847 17.038 14.9909 16.7544 16.07H12.8311ZM18.5878 12.77H21.6556C21.5578 13.9145 21.2556 15.0322 20.7633 16.07H18.1111C18.3678 15.0067 18.523 13.9226 18.5756 12.8311L18.5878 12.77ZM18.5878 11.12C18.5318 10.0277 18.3722 8.94321 18.1111 7.88111H20.7511C21.2437 8.92 21.5456 10.0371 21.6433 11.1811L18.5878 11.12ZM19.81 6.23111H17.6222C17.2264 5.11926 16.6526 4.07905 15.9233 3.15111C17.4442 3.83382 18.7653 4.89406 19.7611 6.23111H19.81ZM8.07667 3.15111C7.34739 4.07905 6.77363 5.11926 6.37778 6.23111H4.23889C5.23466 4.89406 6.55576 3.83382 8.07667 3.15111ZM4.22667 17.8178H6.37778C6.77363 18.9296 7.34739 19.9698 8.07667 20.8978C6.55155 20.2048 5.23005 19.1316 4.23889 17.7811L4.22667 17.8178ZM15.9111 20.8978C16.6404 19.9698 17.2141 18.9296 17.61 17.8178H19.7611C18.7593 19.1369 17.4387 20.1799 15.9233 20.8489L15.9111 20.8978Z" fill="white"/>
</svg>
